<svg aria-hidden="true" style="width:0;height:0;position:absolute" xmlns="http://www.w3.org/2000/svg" overflow="hidden"><defs><symbol id="arrow-right" viewBox="0 0 24 24"><path d="M11.293 5.707 16.586 11H5a1 1 0 0 0 0 2h11.586l-5.293 5.293a.999.999 0 1 0 1.414 1.414l7-7a1.006 1.006 0 0 0 0-1.414l-7-7a.999.999 0 1 0-1.414 1.414z"/></symbol><symbol id="icon-close" viewBox="0 0 32 32"><path d="m26.667 7.303-1.97-1.97-7.808 7.808-7.808-7.808-1.97 1.97 7.808 7.808-7.808 7.808 1.97 1.97 7.808-7.808 7.808 7.808 1.97-1.97-7.808-7.808 7.808-7.808z"/></symbol><symbol id="chevron-right"><path d="M9.16 4.52c.42.4 4.5 4.7 4.5 4.7a1.1 1.1 0 0 1 0 1.57s-4.08 4.29-4.5 4.7c-.41.4-1.17.43-1.61 0-.45-.44-.48-1.05 0-1.58L11.3 10 7.54 6.1c-.48-.54-.45-1.15 0-1.58s1.2-.41 1.61 0z"/></symbol><symbol id="menu" viewBox="0 0 20 20"><path d="M0 3h20v2H0V3zm0 6h20v2H0V9zm0 6h20v2H0v-2z"/></symbol><symbol id="close" viewBox="0 0 20 20"><path d="M10 8.59 2.93 1.52l-1.41 1.4L8.59 10l-7.07 7.07 1.4 1.41L10 11.41l7.07 7.07 1.41-1.4L11.41 10l7.07-7.07-1.4-1.42L10 8.6z"/></symbol><symbol id="review-points" viewBox="0 0 256 32"><path d="M144 16a16 16 0 1 1-32 0 16 16 0 0 1 32 0zM32 16a16 16 0 1 1-32 0 16 16 0 0 1 32 0zm224 0a16 16 0 1 1-32 0 16 16 0 0 1 32 0z"/></symbol><symbol id="points" viewBox="0 0 139 32"><path d="M85.33 16a16 16 0 1 1-32 0 16 16 0 0 1 32 0zM32 16a16 16 0 1 1-32 0 16 16 0 0 1 32 0zm106.67 0a16 16 0 1 1-32 0 16 16 0 0 1 32 0z"/></symbol><symbol id="review-quots" viewBox="0 0 43 32"><path d="M32.01 0c1.93 0 3.75.52 5.47 1.56s3.1 2.54 4.18 4.49c1.03 1.95 1.54 4.25 1.54 6.9s-.64 5.22-1.93 7.73c-.43.91-1.2 2.08-2.31 3.52a63.37 63.37 0 0 1-3.22 3.7L31.7 32l-2.89-4.81a22.03 22.03 0 0 0 5.34-4.69c1.54-1.82 2.31-3.49 2.31-5 0-.78-.17-1.41-.51-1.89a8.36 8.36 0 0 1-5.02 1.63 6.6 6.6 0 0 1-3.8-1.24 8.56 8.56 0 0 1-2.95-3.12 7.37 7.37 0 0 1-1.16-3.9c0-1.52.45-2.97 1.35-4.36.86-1.39 2-2.52 3.41-3.38A8.13 8.13 0 0 1 32.02 0zM8.94 0c1.93 0 3.75.52 5.46 1.56s3.1 2.54 4.18 4.49a14.58 14.58 0 0 1 1.54 6.9c0 1.86-.23 3.53-.7 5a17.3 17.3 0 0 1-2.45 4.75 36.67 36.67 0 0 1-3.15 3.9c-.98 1.09-2.7 2.89-5.14 5.4l-2.9-4.81a22.03 22.03 0 0 0 5.34-4.69c1.55-1.82 2.32-3.49 2.32-5 0-.78-.17-1.41-.52-1.9a8.36 8.36 0 0 1-5.01 1.64A6.6 6.6 0 0 1 4.1 16a8.56 8.56 0 0 1-2.95-3.12A7.37 7.37 0 0 1 0 8.98C0 7.46.43 6 1.3 4.62S3.29 2.1 4.7 1.24A8.13 8.13 0 0 1 8.94 0z"/></symbol><symbol id="facebook" viewBox="0 0 32 32"><path d="M16 32a16 16 0 1 0 0-32 16 16 0 0 0 0 32z"/><path fill="var(--color2, #fff)" d="M20.45 15.98h-2.61v9.62h-3.96v-9.62H12V12.6h1.88v-2.18c0-1.57.74-4.02 4-4.02l2.92.01V9.7h-2.13c-.34 0-.83.18-.83.93v1.98h2.95l-.34 3.38z"/></symbol><symbol id="telegram" viewBox="0 0 32 32"><path d="M32 16a16 16 0 1 1-32 0 16 16 0 0 1 32 0z"/><path fill="var(--color2, #fff)" d="m12.87 18.38-.32 4.16c.45 0 .65-.18.89-.4l2.13-1.9 4.41 3.02c.81.42 1.38.2 1.6-.7l2.9-12.67c.26-1.11-.43-1.55-1.22-1.28L6.22 14.7c-1.16.42-1.14 1.02-.2 1.3l4.36 1.26 10.12-5.9c.47-.3.9-.14.55.16l-8.18 6.86z"/></symbol><symbol id="github" viewBox="0 0 32 32"><path d="M32 16a16 16 0 1 1-32 0 16 16 0 0 1 32 0z"/><path fill="var(--color2, #fff)" d="M16 6.59A9.45 9.45 0 0 0 6.59 16c0 4.41 3.1 8.42 7.2 9.41V22.3c-.4.09-.78.09-1.2-.03-.55-.17-1-.54-1.34-1.1-.21-.36-.59-.75-.98-.73l-.1-1.1c.85-.07 1.6.53 2.03 1.26.2.33.42.52.71.61.28.08.58.04.93-.08.08-.7.4-.96.64-1.33-2.45-.36-3.42-1.66-3.81-2.69a4.32 4.32 0 0 1 .67-4.14c.02-.02.05-.08.04-.12-.42-1.25.09-2.3.1-2.4.49.14.57-.15 2.1.78l.26.16c.11.06.08.03.19.02a8.03 8.03 0 0 1 1.97-.28c.67.01 1.34.1 2 .29h.09l.07-.03c1.91-1.16 1.85-.78 2.36-.95.02.11.52 1.17.1 2.41-.05.17 1.66 1.74.71 4.26-.38 1.03-1.36 2.33-3.81 2.7.31.47.69.73.69 1.72v3.88c4.1-.99 7.2-5 7.2-9.4a9.45 9.45 0 0 0-9.4-9.42z"/></symbol><symbol id="home" viewBox="0 0 32 32"><path fill="var(--color5, #d31342)" d="M31.6 15.43c.58-.6.52-1.5-.13-2.03L17.17 1.72a1.88 1.88 0 0 0-2.32.03L.5 14.02a1.35 1.35 0 0 0-.07 2.03l.36.35c.6.58 1.56.65 2.15.16l1.08-.9v13.12c0 .8.7 1.45 1.56 1.45h5.59c.86 0 1.56-.65 1.56-1.45V19.6h7.14v9.18c-.02.8.6 1.45 1.46 1.45h5.93c.86 0 1.56-.65 1.56-1.45V15.85l.66.54c.36.3 1.13.06 1.71-.54l.41-.42z"/></symbol><symbol id="logo" viewBox="0 0 32 32"><path fill="#d41443" style="fill:var(--color1,#d41443)" d="M31.683 15.842c0 8.749-7.093 15.842-15.842 15.842S-.001 24.591-.001 15.842 7.092 0 15.841 0s15.842 7.093 15.842 15.842z"/><path fill="#fff" style="fill:var(--color2,#fff)" d="m15.842 5.624.031-.95-.031-.001-.031.001.031.95zM26.136 17.93zm0 .258zm-8.625 5.796zm3.162 5.323c1.028 0 2.337-.28 3.365-1.308l-1.344-1.344c-.556.556-1.306.751-2.021.751v1.901zm3.365-1.308c.893-.893 1.13-2.044 1.192-3.302.059-1.204-.042-2.86-.042-4.736h-1.901c0 2.084.102 3.473.044 4.643-.055 1.116-.254 1.668-.637 2.051l1.344 1.344zm-4.315-7.563v1.977h1.901v-1.977h-1.901zm-2.139 1.858v-1.938h-1.901v1.938h1.901zm7.604-6.215c0-.861.08-2.148-.023-3.386-.106-1.271-.409-2.666-1.255-3.888l-1.563 1.082c.58.837.831 1.858.923 2.964.095 1.138.016 2.188.016 3.228h1.901zM10.059 28.356V32h1.901v-3.644h-1.901zm.951.951H20.675v-1.901H11.01v1.901zm8.713-.951V32h1.901v-3.644h-1.901zm-1.607-5.109-.058-.041-1.094 1.555.058.041 1.094-1.555zm6.122-4.237h-3.089v1.901h3.089V19.01zm-8 0H7.446v1.901h8.792V19.01zm-8.792 0c-.286 0-.456-.057-.556-.109s-.167-.119-.221-.199a1.201 1.201 0 0 1-.172-.568l-1.898.108c.016.284.092.928.495 1.525.446.659 1.214 1.144 2.352 1.144V19.01zm-.95-1.03c.008-.154.05-.422.181-.625.058-.09.129-.161.226-.214s.262-.111.543-.111v-1.901c-1.161 0-1.93.518-2.366 1.196-.395.612-.466 1.27-.481 1.556l1.898.099zm17.742-.95c.281 0 .446.058.543.111s.168.125.226.214c.131.203.173.471.181.625l1.898-.099c-.015-.286-.087-.944-.481-1.556-.437-.678-1.206-1.196-2.366-1.196v1.901zm.949 1.104a1.201 1.201 0 0 1-.172.568c-.054.08-.123.147-.221.199s-.27.109-.556.109v1.901c1.138 0 1.906-.485 2.352-1.144.404-.597.479-1.241.496-1.525l-1.898-.108zm-9.345-4.985c1.491 0 5.077-.16 7.969-3.14l-1.364-1.324c-2.335 2.406-5.245 2.563-6.605 2.563v1.901zm7.287-3.802c.783-.539.783-.54.782-.54l-.001-.001-.001-.002-.003-.005-.009-.013a7.11 7.11 0 0 0-.524-.638 10.729 10.729 0 0 0-1.507-1.365 10.493 10.493 0 0 0-5.994-2.11l-.062 1.9a8.585 8.585 0 0 1 4.917 1.732c.552.413.966.82 1.238 1.12.136.15.236.272.3.353l.068.089.013.018.001.002-.001-.001-.001-.001v-.001l.782-.54zm-15.257.662c2.893 2.98 6.478 3.14 7.969 3.14v-1.901c-1.36 0-4.27-.157-6.605-2.563l-1.364 1.324zm7.938-5.335a10.491 10.491 0 0 0-5.994 2.11c-.666.498-1.168.992-1.507 1.365a8.57 8.57 0 0 0-.493.597.937.937 0 0 1-.03.041l-.009.013-.003.005-.001.002-.001.001.782.54.782.54v.001l-.001.001-.001.001.001-.002a6.848 6.848 0 0 1 .381-.46 8.8 8.8 0 0 1 1.238-1.12 8.585 8.585 0 0 1 4.917-1.732l-.062-1.9zM8.396 16.079c0-1.04-.078-2.09.017-3.228.092-1.106.344-2.126.923-2.964L7.773 8.805c-.846 1.222-1.149 2.617-1.255 3.888-.103 1.238-.023 2.524-.023 3.386h1.901zM6.495 19.96c0 1.876-.101 3.532-.042 4.736.062 1.258.298 2.409 1.192 3.303l1.344-1.344c-.384-.384-.583-.936-.637-2.051-.057-1.17.044-2.559.044-4.643H6.495zm1.15 8.039c1.028 1.028 2.337 1.308 3.365 1.308v-1.901c-.715 0-1.465-.195-2.021-.751l-1.344 1.344zM7.446 17.03h8.396v-1.901H7.446v1.901zm8.396 0h8.396v-1.901h-8.396v1.901zM11.01 29.307h9.663v-1.901H11.01v1.901zM25.187 17.98c.003.054.003.105 0 .155l1.898.108a3.122 3.122 0 0 0 0-.362l-1.898.099zm-18.691.154a1.335 1.335 0 0 1 0-.155l-1.898-.099c-.006.118-.006.239.001.362l1.898-.108zm11.088 2.222c0-.744-.603-1.347-1.347-1.347v1.901a.554.554 0 0 1-.554-.554h1.901zm-1.901 1.938c0 .982.478 1.902 1.28 2.467l1.094-1.555a1.115 1.115 0 0 1-.474-.912h-1.901zm1.339 2.508a2.922 2.922 0 0 0 3.494-.099l-1.18-1.49a1.02 1.02 0 0 1-1.22.034l-1.094 1.555zm2.701-2.389c0 .312-.142.606-.387.8l1.18 1.49a2.921 2.921 0 0 0 1.108-2.29h-1.901zm1.901-1.977a.475.475 0 0 1-.475.475V19.01c-.788 0-1.426.638-1.426 1.426h1.901z"/></symbol><symbol id="arrow-right_1" viewBox="0 0 32 32"><path d="M16.222 3.867a2.575 2.575 0 0 0 0 3.645l5.911 5.911H2.578a2.579 2.579 0 0 0 0 5.156h19.555l-5.911 5.911a2.575 2.575 0 0 0 0 3.645 2.573 2.573 0 0 0 3.644 0l12.133-12.133L19.866 3.869a2.575 2.575 0 0 0-3.645 0z"/></symbol></defs></svg>