<svg aria-hidden="true" style="width:0;height:0;position:absolute;overflow:hidden" xmlns="http://www.w3.org/2000/svg"><defs><symbol id="icon-angle-right-solid" viewBox="0 0 16 32"><path d="M4 28a2 2 0 0 1-1.414-3.414L11.175 16 2.586 7.412a2 2 0 1 1 2.828-2.828l10 10a2 2 0 0 1 0 2.828l-10 10A1.98 1.98 0 0 1 4 27.999z"/></symbol><symbol id="icon-close-black-18dp-2-1-1" viewBox="0 0 32 32"><path d="m26.684 7.308-1.971-1.971L16.9 13.15 9.087 5.337 7.116 7.308l7.813 7.813-7.813 7.813 1.971 1.971 7.813-7.813 7.813 7.813 1.971-1.971-7.813-7.813 7.813-7.813z"/></symbol></defs></svg>