<svg aria-hidden="true" style="position: absolute; width: 0; height: 0; overflow: hidden;" version="1.1" xmlns="http://www.w3.org/2000/svg" xmlns:xlink="http://www.w3.org/1999/xlink">
<defs>
<symbol id="icon-email" viewBox="0 0 32 32">
<path d="M26.684 5.337h-21.347c-1.468 0-2.654 1.201-2.654 2.668l-0.014 16.010c0 1.468 1.201 2.668 2.668 2.668h21.347c1.468 0 2.668-1.201 2.668-2.668v-16.010c0-1.468-1.201-2.668-2.668-2.668zM26.15 11.008l-9.432 5.895c-0.201 0.126-0.446 0.201-0.708 0.201s-0.507-0.075-0.714-0.204l0.006 0.003-9.432-5.895c-0.336-0.201-0.557-0.563-0.557-0.976 0-0.626 0.507-1.133 1.133-1.133 0.233 0 0.449 0.070 0.629 0.19l-0.004-0.003 8.939 5.589 8.939-5.591c0.176-0.118 0.392-0.188 0.625-0.188 0.626 0 1.133 0.507 1.133 1.133 0 0.413-0.221 0.775-0.552 0.973l-0.005 0.003z"></path>
</symbol>
<symbol id="icon-phone" viewBox="0 0 32 32">
<path d="M24.898 19.787l-3.27-0.374c-0.090-0.011-0.194-0.018-0.3-0.018-0.707 0-1.348 0.287-1.812 0.751l-2.37 2.37c-3.672-1.895-6.589-4.813-8.433-8.377l-0.051-0.108 2.384-2.378c0.464-0.464 0.751-1.104 0.751-1.812 0-0.106-0.006-0.21-0.019-0.312l0.001 0.012-0.374-3.245c-0.155-1.288-1.241-2.277-2.559-2.277-0.001 0-0.002 0-0.003 0h-2.227c-1.455 0-2.665 1.21-2.576 2.663 0.683 10.994 9.476 19.775 20.458 20.458 1.453 0.089 2.665-1.121 2.665-2.576v-2.227c0-0.004 0-0.008 0-0.012 0-1.309-0.985-2.387-2.255-2.534l-0.012-0.001z"></path>
</symbol>
<symbol id="icon-person" viewBox="0 0 32 32">
<path d="M16.010 16.010c2.947 0 5.337-2.389 5.337-5.337s-2.389-5.337-5.337-5.337v0c-2.947 0-5.337 2.389-5.337 5.337s2.389 5.337 5.337 5.337v0zM16.010 18.679c-3.563 0-10.674 1.788-10.674 5.337v1.334c0 0.733 0.599 1.334 1.334 1.334h18.679c0.733 0 1.334-0.601 1.334-1.334v-1.334c0-3.549-7.112-5.337-10.674-5.337z"></path>
</symbol>

</defs>
</svg>
